HIERARCHY
ROOT Hips
{
	OFFSET 0.327225 85.456291 8.060652
	CHANNELS 6 Xposition Yposition Zposition Zrotation Yrotation Xrotation 
	JOINT Spine
	{
		OFFSET 0.000000 8.814246 -2.080107
		CHANNELS 3 Zrotation Yrotation Xrotation
		JOINT Spine1
		{
			OFFSET -0.000000 8.844141 0.000000
			CHANNELS 3 Zrotation Yrotation Xrotation
			JOINT Spine2
			{
				OFFSET 0.000000 11.682268 0.000000
				CHANNELS 3 Zrotation Yrotation Xrotation
				JOINT Spine3
				{
					OFFSET 0.000000 11.746700 0.000000
					CHANNELS 3 Zrotation Yrotation Xrotation
					JOINT Neck
					{
						OFFSET 0.000000 17.658264 0.000000
						CHANNELS 3 Zrotation Yrotation Xrotation
						JOINT Neck1
						{
							OFFSET 0.000000 5.101515 0.000000
							CHANNELS 3 Zrotation Yrotation Xrotation
							JOINT Head
							{
								OFFSET -0.000000 5.101515 -0.000000
								CHANNELS 3 Zrotation Yrotation Xrotation
								JOINT HeadEnd
								{
									OFFSET 0.000000 11.655085 0.000000
									CHANNELS 3 Zrotation Yrotation Xrotation
									End Site
									{
										OFFSET 0.000000 0.000000 0.000000
									}
								}
							}
						}
					}
					JOINT RightShoulder
					{
						OFFSET -2.625389 11.175210 -0.000000
						CHANNELS 3 Zrotation Yrotation Xrotation
						JOINT RightArm
						{
							OFFSET 0.000000 10.434715 0.000000
							CHANNELS 3 Zrotation Yrotation Xrotation
							JOINT RightForeArm
							{
								OFFSET -0.000000 29.628420 -0.000000
								CHANNELS 3 Zrotation Yrotation Xrotation
								JOINT RightHand
								{
									OFFSET 0.000000 22.857611 -0.000000
									CHANNELS 3 Zrotation Yrotation Xrotation
									JOINT RightHandThumb1
									{
										OFFSET -2.867323 3.959563 2.944291
										CHANNELS 3 Zrotation Yrotation Xrotation
										JOINT RightHandThumb2
										{
											OFFSET -0.000000 3.350399 0.000000
											CHANNELS 3 Zrotation Yrotation Xrotation
											JOINT RightHandThumb3
											{
												OFFSET -0.000000 3.756509 0.000000
												CHANNELS 3 Zrotation Yrotation Xrotation
												JOINT RightHandThumb4
												{
													OFFSET -0.000000 3.147345 0.000000
													CHANNELS 3 Zrotation Yrotation Xrotation
													End Site
													{
														OFFSET 0.000000 0.000000 0.000000
													}
												}
											}
										}
									}
									JOINT RightHandIndex1
									{
										OFFSET -0.086752 10.030893 2.345280
										CHANNELS 3 Zrotation Yrotation Xrotation
										JOINT RightHandIndex2
										{
											OFFSET -0.000000 4.061090 -0.000000
											CHANNELS 3 Zrotation Yrotation Xrotation
											JOINT RightHandIndex3
											{
												OFFSET 0.000000 3.248873 -0.000000
												CHANNELS 3 Zrotation Yrotation Xrotation
												JOINT RightHandIndex4
												{
													OFFSET 0.000000 2.639709 -0.000000
													CHANNELS 3 Zrotation Yrotation Xrotation
													End Site
													{
														OFFSET 0.000000 0.000000 0.000000
													}
												}
											}
										}
									}
									JOINT RightHandMiddle1
									{
										OFFSET 0.104102 9.502952 0.006768
										CHANNELS 3 Zrotation Yrotation Xrotation
										JOINT RightHandMiddle2
										{
											OFFSET -0.000000 4.568727 -0.000000
											CHANNELS 3 Zrotation Yrotation Xrotation
											JOINT RightHandMiddle3
											{
												OFFSET -0.000000 3.654981 -0.000000
												CHANNELS 3 Zrotation Yrotation Xrotation
												JOINT RightHandMiddle4
												{
													OFFSET -0.000000 2.741236 -0.000000
													CHANNELS 3 Zrotation Yrotation Xrotation
													End Site
													{
														OFFSET 0.000000 0.000000 0.000000
													}
												}
											}
										}
									}
									JOINT RightHandRing1
									{
										OFFSET 0.086752 8.921708 -2.267442
										CHANNELS 3 Zrotation Yrotation Xrotation
										JOINT RightHandRing2
										{
											OFFSET -0.000000 4.061090 0.000000
											CHANNELS 3 Zrotation Yrotation Xrotation
											JOINT RightHandRing3
											{
												OFFSET 0.000000 3.654981 -0.000000
												CHANNELS 3 Zrotation Yrotation Xrotation
												JOINT RightHandRing4
												{
													OFFSET 0.000000 2.741236 -0.000000
													CHANNELS 3 Zrotation Yrotation Xrotation
													End Site
													{
														OFFSET 0.000000 0.000000 0.000000
													}
												}
											}
										}
									}
									JOINT RightHandPinky1
									{
										OFFSET -0.173504 7.976997 -4.467199
										CHANNELS 3 Zrotation Yrotation Xrotation
										JOINT RightHandPinky2
										{
											OFFSET -0.000000 3.350399 0.000000
											CHANNELS 3 Zrotation Yrotation Xrotation
											JOINT RightHandPinky3
											{
												OFFSET 0.000000 2.842763 -0.000000
												CHANNELS 3 Zrotation Yrotation Xrotation
												JOINT RightHandPinky4
												{
													OFFSET -0.000000 2.639709 0.000000
													CHANNELS 3 Zrotation Yrotation Xrotation
													End Site
													{
														OFFSET 0.000000 0.000000 0.000000
													}
												}
											}
										}
									}
									JOINT RightForeArmEnd
									{
										OFFSET 0.000000 0.000000 0.000000
										CHANNELS 3 Zrotation Yrotation Xrotation
										End Site
										{
											OFFSET 0.000000 0.000000 0.000000
										}
									}
								}
								JOINT RightArmEnd
								{
									OFFSET 0.000000 0.000000 0.000000
									CHANNELS 3 Zrotation Yrotation Xrotation
									End Site
									{
										OFFSET 0.000000 0.000000 0.000000
									}
								}
							}
						}
					}
					JOINT LeftShoulder
					{
						OFFSET 2.625389 11.175210 0.000000
						CHANNELS 3 Zrotation Yrotation Xrotation
						JOINT LeftArm
						{
							OFFSET -0.000000 10.813635 0.000000
							CHANNELS 3 Zrotation Yrotation Xrotation
							JOINT LeftForeArm
							{
								OFFSET 0.000000 28.724781 -0.000000
								CHANNELS 3 Zrotation Yrotation Xrotation
								JOINT LeftHand
								{
									OFFSET 0.644384 25.716167 -0.328871
									CHANNELS 3 Zrotation Yrotation Xrotation
									JOINT LeftHandThumb1
									{
										OFFSET 2.867323 3.959563 2.944291
										CHANNELS 3 Zrotation Yrotation Xrotation
										JOINT LeftHandThumb2
										{
											OFFSET 0.000000 3.350399 -0.000000
											CHANNELS 3 Zrotation Yrotation Xrotation
											JOINT LeftHandThumb3
											{
												OFFSET 0.000000 3.756509 0.000000
												CHANNELS 3 Zrotation Yrotation Xrotation
												JOINT LeftHandThumb4
												{
													OFFSET 0.000000 3.100000 0.000000
													CHANNELS 3 Zrotation Yrotation Xrotation
													End Site
													{
														OFFSET 0.000000 0.000000 0.000000
													}
												}
											}
										}
									}
									JOINT LeftHandIndex1
									{
										OFFSET 0.086752 10.030893 2.345280
										CHANNELS 3 Zrotation Yrotation Xrotation
										JOINT LeftHandIndex2
										{
											OFFSET 0.000000 4.061090 0.000000
											CHANNELS 3 Zrotation Yrotation Xrotation
											JOINT LeftHandIndex3
											{
												OFFSET -0.000000 3.248873 -0.000000
												CHANNELS 3 Zrotation Yrotation Xrotation
												JOINT LeftHandIndex4
												{
													OFFSET -0.000000 2.639709 -0.000000
													CHANNELS 3 Zrotation Yrotation Xrotation
													End Site
													{
														OFFSET 0.000000 0.000000 0.000000
													}
												}
											}
										}
									}
									JOINT LeftHandMiddle1
									{
										OFFSET -0.104102 9.502952 0.006768
										CHANNELS 3 Zrotation Yrotation Xrotation
										JOINT LeftHandMiddle2
										{
											OFFSET 0.000000 4.568727 0.000000
											CHANNELS 3 Zrotation Yrotation Xrotation
											JOINT LeftHandMiddle3
											{
												OFFSET -0.000000 3.654981 -0.000000
												CHANNELS 3 Zrotation Yrotation Xrotation
												JOINT LeftHandMiddle4
												{
													OFFSET -0.000000 2.741236 -0.000000
													CHANNELS 3 Zrotation Yrotation Xrotation
													End Site
													{
														OFFSET 0.000000 0.000000 0.000000
													}
												}
											}
										}
									}
									JOINT LeftHandRing1
									{
										OFFSET -0.086752 8.921708 -2.267442
										CHANNELS 3 Zrotation Yrotation Xrotation
										JOINT LeftHandRing2
										{
											OFFSET 0.000000 4.061090 0.000000
											CHANNELS 3 Zrotation Yrotation Xrotation
											JOINT LeftHandRing3
											{
												OFFSET -0.000000 3.654981 -0.000000
												CHANNELS 3 Zrotation Yrotation Xrotation
												JOINT LeftHandRing4
												{
													OFFSET -0.000000 2.741236 -0.000000
													CHANNELS 3 Zrotation Yrotation Xrotation
													End Site
													{
														OFFSET 0.000000 0.000000 0.000000
													}
												}
											}
										}
									}
									JOINT LeftHandPinky1
									{
										OFFSET 0.173504 7.976997 -4.467199
										CHANNELS 3 Zrotation Yrotation Xrotation
										JOINT LeftHandPinky2
										{
											OFFSET 0.000000 3.350399 0.000000
											CHANNELS 3 Zrotation Yrotation Xrotation
											JOINT LeftHandPinky3
											{
												OFFSET 0.000000 2.842763 0.000000
												CHANNELS 3 Zrotation Yrotation Xrotation
												JOINT LeftHandPinky4
												{
													OFFSET 0.000000 2.639709 -0.000000
													CHANNELS 3 Zrotation Yrotation Xrotation
													End Site
													{
														OFFSET 0.000000 0.000000 0.000000
													}
												}
											}
										}
									}
									JOINT LeftForeArmEnd
									{
										OFFSET 0.000000 0.000000 0.000000
										CHANNELS 3 Zrotation Yrotation Xrotation
										End Site
										{
											OFFSET 0.000000 0.000000 0.000000
										}
									}
								}
								JOINT LeftArmEnd
								{
									OFFSET 0.000000 0.000000 0.000000
									CHANNELS 3 Zrotation Yrotation Xrotation
									End Site
									{
										OFFSET 0.000000 0.000000 0.000000
									}
								}
							}
						}
					}
				}
			}
		}
	}
	JOINT RightUpLeg
	{
		OFFSET -11.289943 0.000000 -0.000000
		CHANNELS 3 Zrotation Yrotation Xrotation
		JOINT RightLeg
		{
			OFFSET -0.000000 -38.200325 -0.000000
			CHANNELS 3 Zrotation Yrotation Xrotation
			JOINT RightFoot
			{
				OFFSET -0.000000 -39.900856 0.000000
				CHANNELS 3 Zrotation Yrotation Xrotation
				JOINT RightToeBase
				{
					OFFSET 0.000000 -0.000000 15.261641
					CHANNELS 3 Zrotation Yrotation Xrotation
					JOINT RightToeBaseEnd
					{
						OFFSET -0.000000 -0.000000 7.370709
						CHANNELS 3 Zrotation Yrotation Xrotation
						End Site
						{
							OFFSET 0.000000 0.000000 0.000000
						}
					}
				}
				JOINT RightLegEnd
				{
					OFFSET 0.000000 0.000000 0.000000
					CHANNELS 3 Zrotation Yrotation Xrotation
					End Site
					{
						OFFSET 0.000000 0.000000 0.000000
					}
				}
			}
			JOINT RightUpLegEnd
			{
				OFFSET 0.000000 0.000000 0.000000
				CHANNELS 3 Zrotation Yrotation Xrotation
				End Site
				{
					OFFSET 0.000000 0.000000 0.000000
				}
			}
		}
	}
	JOINT LeftUpLeg
	{
		OFFSET 11.315661 -0.000000 0.000000
		CHANNELS 3 Zrotation Yrotation Xrotation
		JOINT LeftLeg
		{
			OFFSET -0.000000 -38.200325 -0.000000
			CHANNELS 3 Zrotation Yrotation Xrotation
			JOINT LeftFoot
			{
				OFFSET -0.000000 -39.900856 0.000000
				CHANNELS 3 Zrotation Yrotation Xrotation
				JOINT LeftToeBase
				{
					OFFSET 0.000000 -0.000000 15.261641
					CHANNELS 3 Zrotation Yrotation Xrotation
					JOINT LeftToeBaseEnd
					{
						OFFSET -0.000000 0.000000 7.539996
						CHANNELS 3 Zrotation Yrotation Xrotation
						End Site
						{
							OFFSET 0.000000 0.000000 0.000000
						}
					}
				}
				JOINT LeftLegEnd
				{
					OFFSET 0.000000 0.000000 0.000000
					CHANNELS 3 Zrotation Yrotation Xrotation
					End Site
					{
						OFFSET 0.000000 0.000000 0.000000
					}
				}
			}
			JOINT LeftUpLegEnd
			{
				OFFSET 0.000000 0.000000 0.000000
				CHANNELS 3 Zrotation Yrotation Xrotation
				End Site
				{
					OFFSET 0.000000 0.000000 0.000000
				}
			}
		}
	}
}
MOTION
Frames: 5
Frame Time: 0.016667
0.327225 85.456291 8.060652 -1.060160 -0.454608 -23.207590 2.322709 -0.297220 12.236113 0.341520 -0.185955 6.095392 -2.927263 -0.107008 18.660194 -3.766547 -0.127707 10.148421 -8.554237 3.011372 10.670642 -1.052736 0.746531 -1.072306 -1.427619 -1.392408 -19.988150 0.000000 0.000000 0.000000 91.634735 -0.442339 15.425826 54.665524 -30.476999 24.470922 -0.226760 15.539892 21.119818 5.921650 20.191023 -2.405218 13.495595 32.597275 68.996590 0.000003 0.000003 0.000009 0.000134 -0.000001 0.000005 0.000000 0.000000 0.000000 13.796139 -10.938026 1.277707 9.837293 0.396116 1.450871 9.837299 -0.105893 1.372970 0.000000 0.000000 0.000000 13.018492 -5.780196 0.547168 9.259837 0.477044 0.562421 9.259580 -0.040827 0.482464 0.000000 0.000000 0.000000 14.759333 1.948519 1.684468 10.371669 -0.929828 -0.808298 10.370477 0.055660 -0.609709 0.000000 0.000000 0.000000 15.656369 10.308870 0.915056 10.776875 -1.765082 -2.455533 10.769448 0.171573 -2.081882 0.000000 0.000000 0.000000 0.000000 0.000000 0.000000 0.000000 0.000000 0.000000 -92.594154 0.517031 10.482300 -55.364445 20.044870 9.159415 -0.966445 -10.157828 39.026314 -1.252406 -30.847612 -11.535672 -13.450125 -32.590797 68.901459 0.011028 0.011022 -0.022262 0.011023 0.011028 -0.022273 0.000000 0.000000 0.000000 -11.776063 -6.462783 0.977572 -8.183229 0.418838 -1.217398 -8.182890 -0.087328 -1.146339 0.000000 0.000000 0.000000 -11.505368 -1.486834 0.105365 -8.159037 0.488683 -0.513053 -8.158793 0.006084 -0.433014 0.000000 0.000000 0.000000 -14.670410 7.057579 0.049814 -10.405230 -0.938801 0.816612 -10.403862 0.035557 0.635699 0.000000 0.000000 0.000000 -17.068953 15.932078 -0.778814 -11.779098 -1.717910 2.681325 -11.773773 0.235106 2.277516 0.000000 0.000000 0.000000 0.000000 0.000000 0.000000 0.000000 0.000000 0.000000 -5.285096 -1.941737 14.891479 -0.561212 -0.964231 30.047485 4.622950 -4.876317 6.481491 -0.907080 1.864290 -16.513636 0.000000 0.000000 0.000000 0.000000 0.000000 0.000000 0.000000 0.000000 0.000000 4.159544 -1.943718 10.882134 0.172503 0.240085 35.792629 -0.279231 6.748767 5.369925 0.530027 -0.512076 -20.503864 0.000000 0.000000 0.000000 0.000000 0.000000 0.000000 0.000000 0.000000 0.000000 
0.220592 85.393021 7.306007 -0.939509 -0.204722 -22.442455 1.438004 -0.211664 11.986423 0.732220 -0.187914 6.946229 -3.203984 0.415440 17.349348 -2.881184 -0.158797 9.248660 -9.522535 4.561520 10.991888 -2.108166 0.761497 -1.595792 -1.398181 -0.335847 -19.258352 0.000000 0.000000 0.000000 92.150787 -0.246644 15.036850 53.898968 -28.939131 23.289722 0.202163 16.810732 20.707085 4.507055 18.203077 -0.652815 -5.652993 0.890184 47.124874 -0.000008 0.000007 12.716591 0.000012 0.000054 9.256696 0.000016 0.000004 -0.000017 15.127032 0.841356 -1.120340 9.525545 0.057866 0.107317 9.626777 0.109423 0.095560 -0.000018 -0.000005 0.000000 13.190458 0.327036 -3.060911 8.727756 -0.005727 0.017963 8.579871 0.030797 0.028977 0.000010 -0.000020 0.000027 13.684904 -0.413643 -2.887212 9.940550 0.012395 0.056804 9.750799 -0.054508 0.040596 -0.000003 0.000351 0.000004 13.795182 -1.104321 -4.895921 10.415776 -0.100262 0.440275 10.177708 -0.281365 0.306758 -0.000751 0.000008 0.000047 0.000000 0.000000 0.000000 0.000000 0.000000 0.000000 -90.415489 -0.196063 10.648926 -57.525803 21.253775 6.691739 -0.962291 -9.273220 40.849342 0.469071 -29.775276 -5.819364 5.926567 -0.875083 47.102581 0.000012 0.000020 13.078520 -0.000081 -0.000006 9.540980 0.000129 -0.000017 0.000446 -12.671515 0.824438 -0.583127 -9.042861 -0.029882 -0.117269 -9.037575 0.049520 -0.110619 0.000013 0.000260 0.000021 -13.087363 0.344207 -2.800154 -8.525330 -0.038510 -0.050166 -8.376523 0.009012 -0.040291 0.000401 -0.000044 0.000030 -15.639359 -0.398249 -3.466428 -9.561818 0.059572 0.079951 -9.504306 -0.023151 0.078348 0.000313 -0.000011 -0.000002 -16.402136 -1.158610 -5.056888 -10.129443 0.130243 0.293790 -9.900630 -0.091405 0.291019 0.000338 -0.000017 -0.000050 0.000000 0.000000 0.000000 0.000000 0.000000 0.000000 -6.297847 1.190008 14.053316 -0.416129 -0.848177 26.904099 3.414173 -4.447682 8.063883 -0.883168 1.773287 -16.874212 0.000000 0.000000 0.000000 0.000000 0.000000 0.000000 0.000000 0.000000 0.000000 3.695102 -2.955292 10.708768 0.297012 0.258843 36.312531 -0.394404 7.995421 4.640465 0.350042 -0.876068 -20.152643 0.000000 0.000000 0.000000 0.000000 0.000000 0.000000 0.000000 0.000000 0.000000 
0.208326 85.398453 7.301972 -0.928999 -0.190174 -22.430782 1.485131 -0.217357 11.993369 0.690193 -0.167708 7.007888 -3.178680 0.316071 17.226765 -2.836337 -0.162128 9.160055 -9.529388 4.569894 11.083711 -2.029799 0.835397 -1.637712 -1.419024 -0.394735 -19.280588 0.000000 0.000000 0.000000 92.160606 -0.188819 15.036618 53.965649 -29.212830 23.232746 0.219682 16.803776 20.836975 4.407808 18.283209 -1.120191 -5.675941 0.884430 47.122227 0.000002 0.000011 12.713350 0.000013 0.000054 9.291608 0.000035 0.000013 -0.000041 14.844743 0.893700 -1.563034 9.325717 0.051991 0.093834 9.452508 0.104435 0.080657 -0.000014 0.000004 -0.000009 12.998848 0.348853 -3.464965 8.533720 -0.010747 0.015716 8.386406 0.030171 0.026492 0.000030 -0.000057 0.000022 13.539682 -0.440498 -3.270685 9.722866 0.023505 0.053963 9.549914 -0.051035 0.039833 -0.000023 0.000140 -0.000016 13.736371 -1.181007 -5.193777 10.189270 -0.072356 0.414935 9.943505 -0.272802 0.285485 -0.000727 0.000011 0.000020 0.000000 0.000000 0.000000 0.000000 0.000000 0.000000 -90.529388 -0.229695 10.583305 -57.807014 21.518587 6.727647 -0.994857 -9.282632 40.858387 0.569961 -29.716711 -5.849108 5.968457 -0.880761 47.114086 0.000016 0.000036 13.140594 -0.000093 -0.000002 9.587414 0.000274 -0.000002 0.000686 -12.485106 0.882007 -0.713782 -9.035952 -0.031580 -0.094479 -9.051094 0.051416 -0.093193 0.000017 0.000296 0.000017 -12.943957 0.368122 -2.896780 -8.511347 -0.041513 -0.044099 -8.371894 0.008422 -0.035473 0.000363 -0.000038 -0.000018 -15.629472 -0.426613 -3.531300 -9.583977 0.066422 0.076660 -9.496940 -0.022113 0.074439 0.000473 0.000010 0.000004 -16.450043 -1.241996 -5.076256 -10.131235 0.145876 0.291763 -9.887123 -0.087251 0.283009 0.000382 0.000005 -0.000052 0.000000 0.000000 0.000000 0.000000 0.000000 0.000000 -6.207167 1.182823 13.921752 -0.413839 -0.837671 26.968344 3.278265 -4.312522 8.141139 -0.882758 1.748356 -16.881548 0.000000 0.000000 0.000000 0.000000 0.000000 0.000000 0.000000 0.000000 0.000000 3.644590 -3.009392 10.726629 0.301323 0.261385 36.350029 -0.362099 8.019552 4.670454 0.345649 -0.855221 -20.251160 0.000000 0.000000 0.000000 0.000000 0.000000 0.000000 0.000000 0.000000 0.000000 
0.189435 85.421875 7.313765 -0.895278 -0.175015 -22.399437 1.489544 -0.213190 11.958703 0.682661 -0.158388 6.976309 -3.150177 0.211619 17.166557 -2.773126 -0.187930 9.082441 -9.557434 4.535427 11.214479 -1.968240 0.866470 -1.638743 -1.418048 -0.434276 -19.311796 0.000000 0.000000 0.000000 92.219398 -0.178008 14.976335 53.949654 -29.345991 23.243784 0.213722 16.676426 20.804363 4.333100 18.086403 -1.302416 -5.659676 0.880017 47.114033 0.000006 0.000012 12.668747 0.000010 0.000055 9.282742 0.000035 0.000012 -0.000041 14.739525 0.909901 -1.923679 9.236173 0.050977 0.077448 9.380095 0.103456 0.063641 -0.000012 0.000004 -0.000011 12.931481 0.355805 -3.764457 8.429850 -0.012516 0.012793 8.281866 0.029921 0.023592 0.000029 -0.000068 0.000024 13.372855 -0.449164 -3.502159 9.547808 0.029983 0.048896 9.396859 -0.048062 0.036708 -0.000023 -0.000104 -0.000015 13.548675 -1.206001 -5.318651 9.967552 -0.052720 0.370273 9.731530 -0.262367 0.251379 -0.000752 0.000010 0.000006 0.000000 0.000000 0.000000 0.000000 0.000000 0.000000 -90.598206 -0.231916 10.529099 -57.921803 21.562387 6.816792 -1.032897 -9.265269 40.784199 0.317889 -29.480549 -5.905206 5.989845 -0.884917 47.119843 0.000014 0.000036 13.171353 -0.000100 -0.000002 9.607684 0.000273 -0.000001 0.000872 -12.287634 0.900797 -0.789619 -9.010953 -0.031807 -0.075975 -9.039775 0.053296 -0.078072 0.000014 0.000235 0.000017 -12.787024 0.376389 -2.946413 -8.489656 -0.042463 -0.039105 -8.349180 0.008058 -0.031043 0.000392 -0.000040 -0.000049 -15.575856 -0.436935 -3.556241 -9.589419 0.068844 0.076245 -9.481173 -0.021394 0.073067 0.000596 0.000011 0.000004 -16.460770 -1.272765 -5.062857 -10.134072 0.153220 0.299639 -9.873939 -0.083360 0.284523 0.000395 0.000005 -0.000053 0.000000 0.000000 0.000000 0.000000 0.000000 0.000000 -6.156050 1.157833 13.938640 -0.410932 -0.827964 26.824816 3.165122 -4.271013 8.293138 -0.886405 1.721065 -16.917860 0.000000 0.000000 0.000000 0.000000 0.000000 0.000000 0.000000 0.000000 0.000000 3.568518 -3.041384 10.850888 0.301935 0.266126 36.083248 -0.288503 8.095726 4.826218 0.348032 -0.835827 -20.321787 0.000000 0.000000 0.000000 0.000000 0.000000 0.000000 0.000000 0.000000 0.000000 
0.165665 85.441483 7.319292 -0.865517 -0.175700 -22.363640 1.478638 -0.212575 11.938422 0.690289 -0.158037 6.931380 -3.121053 0.099494 17.126032 -2.717155 -0.229620 9.018838 -9.540545 4.474322 11.274482 -1.927030 0.867425 -1.640077 -1.411016 -0.460853 -19.337969 0.000000 0.000000 0.000000 92.270302 -0.181398 14.894236 53.950081 -29.406551 23.255915 0.193704 16.515724 20.721910 4.378974 17.719799 -1.356516 -5.611453 0.874601 47.100075 0.000007 0.000013 12.572935 0.000009 0.000057 9.227003 0.000035 0.000012 -0.000041 14.773561 0.916502 -2.263271 9.215099 0.051760 0.061826 9.370090 0.104675 0.048438 -0.000012 0.000003 -0.000012 12.970989 0.358586 -4.044837 8.391851 -0.013238 0.009643 8.240883 0.029941 0.021055 0.000028 -0.000073 0.000025 13.286180 -0.452976 -3.712312 9.424298 0.034066 0.044306 9.294506 -0.045945 0.033508 -0.000023 -0.000329 -0.000015 13.390768 -1.217624 -5.426537 9.791868 -0.038720 0.329162 9.566279 -0.253907 0.219923 -0.000798 0.000010 -0.000003 0.000000 0.000000 0.000000 0.000000 0.000000 0.000000 -90.621979 -0.234908 10.511257 -58.020554 21.521915 6.789879 -1.046390 -9.262191 40.787209 -0.082054 -29.199329 -5.973500 5.994554 -0.887664 47.122246 0.000013 0.000037 13.177120 -0.000107 -0.000002 9.605693 0.000208 -0.000000 0.000953 -12.159266 0.908836 -0.814805 -9.017611 -0.031051 -0.056258 -9.055937 0.055866 -0.062709 0.000012 0.000175 0.000018 -12.676182 0.379997 -2.974622 -8.495922 -0.042569 -0.033739 -8.354523 0.008074 -0.026305 0.000445 -0.000041 -0.000068 -15.500982 -0.442666 -3.603503 -9.600191 0.069522 0.075399 -9.475419 -0.021141 0.071948 0.000693 0.000010 0.000003 -16.416517 -1.289878 -5.118781 -10.135895 0.156637 0.306233 -9.865417 -0.081237 0.287094 0.000415 0.000004 -0.000055 0.000000 0.000000 0.000000 0.000000 0.000000 0.000000 -6.102364 1.145712 13.979500 -0.407858 -0.817709 26.646700 3.078625 -4.255728 8.420478 -0.890004 1.700642 -16.951952 0.000000 0.000000 0.000000 0.000000 0.000000 0.000000 0.000000 0.000000 0.000000 3.512553 -3.066687 10.942363 0.302085 0.272536 35.838642 -0.235355 8.167207 4.980450 0.349353 -0.822910 -20.379749 0.000000 0.000000 0.000000 0.000000 0.000000 0.000000 0.000000 0.000000 0.000000 
